<?xml version="1.0" encoding="UTF-8"?>
<svg width="1080px" height="320px" viewBox="0 0 1080 320" version="1.1" xmlns="http://www.w3.org/2000/svg" xmlns:xlink="http://www.w3.org/1999/xlink">
    <!-- Generator: Sketch 53.2 (72643) - https://sketchapp.com -->
    <title>Artboard</title>
    <desc>Created with Sketch.</desc>
    <g id="Artboard" stroke="none" stroke-width="1" fill="none" fill-rule="evenodd">
        <circle id="Oval" cx="8" cy="9" r="257"></circle>
        <g id="Group" transform="translate(474.000000, -19.000000)">
            <circle id="Oval-Copy" fill="#ED455C" cx="748" cy="312" r="312"></circle>
            <path d="M404.048043,459.880868 L407.835452,459.880868 L407.835452,93.2385636 C408.982325,93.1909093 410.131981,93.1537674 411.28426,93.1272346 L411.284271,459.880868 L418.181909,459.880868 L418.181909,93.0954859 C419.334121,93.1113862 420.483769,93.1378933 421.630759,93.174914 L421.630728,459.880868 L427.142547,459.880868 C423.323871,460.117696 419.473622,460.237869 415.595295,460.237869 C411.716964,460.237869 407.866713,460.117695 404.048063,459.880869 Z M400.937815,459.661694 C399.785182,459.57071 398.635543,459.469088 397.488996,459.356926 L397.488996,93.958592 C398.635543,93.8464301 399.785182,93.7448079 400.937815,93.6538234 L400.937815,459.661694 Z M390.591358,458.550619 C389.438314,458.393714 388.288673,458.226111 387.142539,458.047913 L387.142539,95.2676051 C388.288673,95.0894072 389.438314,94.9218039 390.591358,94.7648987 L390.591358,458.550619 Z M380.244901,456.840003 C379.091397,456.615171 377.941754,456.379546 376.796082,456.133237 L376.796082,97.1822808 C377.941754,96.9359723 379.091397,96.7003474 380.244901,96.4755154 L380.244901,456.840003 Z M369.898445,454.509611 C368.744421,454.2142 367.594775,453.90786 366.449626,453.590709 L366.449626,99.7248086 C367.594775,99.4076579 368.744421,99.1013183 369.898445,98.8059066 L369.898445,454.509611 Z M359.551987,451.532913 C358.397368,451.163468 357.247719,450.782914 356.103168,450.391376 L356.103169,102.924136 C357.247719,102.532604 358.397368,102.15205 359.551987,101.782605 L359.551988,451.532917 Z M349.205529,447.87551 C348.050216,447.427563 346.900563,446.968269 345.756709,446.497764 L345.756712,106.817752 C346.900565,106.347248 348.050217,105.887954 349.205529,105.440008 L349.205531,447.875524 Z M338.859066,443.492915 C337.702931,442.960671 336.553273,442.416772 335.410243,441.861369 L335.410256,111.454143 C336.553273,110.898746 337.702931,110.354847 338.859066,109.822603 L338.859074,443.492918 Z M328.512589,438.327312 C327.355458,437.703188 326.20579,437.067013 325.063755,436.418955 L325.063799,116.896538 C326.20579,116.248505 327.355458,115.61233 328.512589,114.988206 L328.512618,438.327328 Z M318.166161,432.302747 C317.007808,431.576672 315.858138,430.838034 314.717342,430.087024 L314.717342,123.228494 C315.858138,122.477484 317.007808,121.738846 318.166161,121.012771 L318.166161,432.302747 Z M307.819704,425.317417 C306.65979,424.47568 305.51011,423.620709 304.370885,422.752726 L304.370885,130.562792 C305.51011,129.694809 306.65979,128.839838 307.819704,127.998101 L307.819704,425.317417 Z M297.473248,417.231368 C296.31127,416.254695 295.161576,415.263891 294.024429,414.25922 L294.024429,139.056298 C295.161576,138.051627 296.31127,137.060823 297.473248,136.08415 L297.473248,417.231368 Z M287.126791,407.844697 C285.961955,406.704711 284.812239,405.549347 283.677972,404.378934 L283.677972,148.936584 C284.812239,147.766171 285.961955,146.610807 287.126791,145.47082 L287.126791,407.844697 Z M276.780334,396.856358 C275.611264,395.508418 274.461514,394.143279 273.331515,392.761371 L273.331515,160.554146 C274.461514,159.172239 275.611264,157.8071 276.780334,156.45916 L276.780334,396.856358 Z M266.433878,383.776484 C265.257878,382.143043 264.108067,380.489501 262.985059,378.816474 L262.985059,174.499044 C264.108067,172.826017 265.257878,171.172475 266.433878,169.539034 L266.433878,383.776484 Z M256.087417,367.705391 C254.898017,365.627721 253.748072,363.524583 252.638602,361.396997 L252.638602,191.918521 C253.748072,189.790935 254.898017,187.687797 256.087417,185.610127 L256.087421,367.705398 Z M245.740964,346.591182 C244.514724,343.618376 243.364315,340.606332 242.292145,337.557457 L242.292145,215.758061 C243.364315,212.709186 244.514724,209.697142 245.740964,206.724336 L245.740964,346.591182 Z M235.394507,312.248435 C233.131685,300.734529 231.945689,288.834594 231.945689,276.657759 C231.945689,264.480924 233.131685,252.580989 235.394507,241.067083 L235.394508,312.248438 Z M428.528366,93.5258084 C429.680934,93.605962 430.830573,93.6967465 431.977185,93.7980645 L431.977185,459.517453 C430.830573,459.618771 429.680934,459.709556 428.528366,459.78971 L428.528366,93.5258084 Z M438.874822,94.5385503 C440.027795,94.6843451 441.177436,94.8408256 442.323641,95.0078894 L442.323641,458.307629 C441.177436,458.474692 440.027795,458.631173 438.874822,458.776968 L438.874822,94.5385503 Z M449.221279,96.1479902 C450.374703,96.3613359 451.524345,96.5854561 452.670098,96.8202426 L452.670098,456.495275 C451.524345,456.730062 450.374703,456.954182 449.221279,457.167528 L449.221279,96.1479902 Z M459.567736,98.3734298 C460.721668,98.6568623 461.871313,98.9511972 463.016555,99.2563189 L463.016555,454.059199 C461.871313,454.364321 460.721668,454.658656 459.567736,454.942088 L459.567736,98.3734298 Z M469.914193,101.240257 C471.068707,101.597083 472.218355,101.964985 473.363012,102.343839 L473.363011,450.971684 C472.218355,451.350533 471.068707,451.718435 469.914193,452.075261 L469.914193,101.240257 Z M480.260651,104.781426 C481.41584,105.215927 482.565491,105.661731 483.709468,106.118704 L483.709468,447.19683 C482.565492,447.653786 481.415841,448.099591 480.260651,448.534092 L480.260649,104.781415 Z M490.607112,109.039551 C491.7631,109.557273 492.912757,110.086595 494.055935,110.627366 L494.055925,442.688156 C492.912757,443.228923 491.7631,443.758245 490.607112,444.275967 L490.607106,109.039548 Z M500.953586,114.06994 C502.110537,114.678129 503.260202,115.298297 504.402417,115.930277 L504.402382,437.385261 C503.260202,438.017221 502.110537,438.637388 500.953586,439.245578 L500.953563,114.069928 Z M511.300019,119.945093 C512.458147,120.65334 513.607816,121.374056 514.748838,122.107052 L514.748838,431.208466 C513.607816,431.941462 512.458147,432.662178 511.300019,433.370425 L511.300019,119.945093 Z M521.646476,126.761813 C522.806101,127.583117 523.955779,128.41753 525.095295,129.264835 L525.095295,424.050683 C523.955779,424.897988 522.806101,425.732401 521.646476,426.553705 L521.646476,126.761813 Z M531.992933,134.652512 C533.154521,135.605032 534.304213,136.571514 535.441752,137.551701 L535.441752,415.763817 C534.304213,416.744004 533.154521,417.710486 531.992933,418.663006 L531.992933,134.652512 Z M542.339389,143.804964 C543.503674,144.915202 544.653386,146.040577 545.788208,147.180774 L545.788208,406.134744 C544.653386,407.274941 543.503674,408.400316 542.339389,409.510554 L542.339389,143.804964 Z M552.685846,154.49908 C553.854074,155.808191 555.003817,157.134141 556.134665,158.476521 L556.134665,394.838997 C555.003817,396.181377 553.854074,397.507327 552.685846,398.816438 L552.685846,154.49908 Z M563.032303,167.183456 C564.206856,168.761533 565.356654,170.359113 566.481122,171.975621 L566.481122,381.339897 C565.356654,382.956405 564.206856,384.553985 563.032303,386.132062 L563.032303,167.183456 Z M573.378762,182.661907 C574.565125,184.647575 575.71504,186.657518 576.827585,188.690813 L576.827578,364.624718 C575.71504,366.658 574.565125,368.667943 573.378762,370.653611 L573.378759,182.661903 Z M583.725216,202.682613 C584.941413,205.440675 586.091684,208.23432 587.174035,211.061553 L587.174035,342.253965 C586.091684,345.081198 584.941413,347.874843 583.725216,350.632905 L583.725216,202.682613 Z M594.071673,233.21185 C597.452904,247.140311 599.244901,261.689843 599.244901,276.657759 C599.244901,291.625675 597.452904,306.175207 594.071673,320.103668 L594.071673,233.21185 Z" id="Combined-Shape" fill="#6DC3B8" transform="translate(415.595295, 276.666678) rotate(-45.000000) translate(-415.595295, -276.666678) "></path>
            <path d="M213.085077,341 C202.801925,312.082081 175.462307,299.474945 133.493175,299.474945 C101.286696,299.474945 0.233964673,299.474945 -3.78014446e-10,299.474945 C0.118459793,268.381598 26.0830775,238.235139 56.9051225,236.118462 L56.9051225,236 L1314,236 L1314,341 L213.085077,341 Z" id="Combined-Shape" fill="#4569AC"></path>
        </g>
    </g>
</svg>