<?xml version="1.0" encoding="UTF-8"?>
<svg width="40px" height="40px" viewBox="0 0 40 40" version="1.1" xmlns="http://www.w3.org/2000/svg" xmlns:xlink="http://www.w3.org/1999/xlink">
    <!-- Generator: Sketch 52.3 (67297) - http://www.bohemiancoding.com/sketch -->
    <title>Icon 3</title>
    <desc>Created with Sketch.</desc>
    <defs>
        <polygon id="path-1" points="0 0.0671302499 23.7222185 0.0671302499 23.7222185 27.0834662 0 27.0834662"></polygon>
    </defs>
    <g id="Iteration-6" stroke="none" stroke-width="1" fill="none" fill-rule="evenodd">
        <g id="v6-/-Design-1" transform="translate(-1075.000000, -370.000000)">
            <g id="Services" transform="translate(205.000000, 316.000000)">
                <g id="Icon-3" transform="translate(870.000000, 54.000000)">
                    <circle id="Oval" fill="#E9F6FE" fill-rule="nonzero" cx="20" cy="20" r="20"></circle>
                    <g id="Icon" transform="translate(8.000000, 6.000953)">
                        <polygon id="Fill-1" fill="#91D2FB" points="22.4385565 18.5968893 13.2141193 13.1748883 12.1389367 13.804749 12.1389367 14.8479388 21.4091969 20.2968191 22.4400456 19.6965597"></polygon>
                        <polygon id="Fill-2" fill="#91D2FB" points="12.8157907 1.86576502 11.8445052 1.30381712 10.8565014 1.87903456 10.8565014 12.6671005 11.9632254 13.317512 12.8157907 11.8990324"></polygon>
                        <polygon id="Fill-3" fill="#91D2FB" points="1.29712979 18.5287724 1.29875424 19.7254805 2.24810968 20.2748393 11.5333284 14.8353497 11.5333284 13.7934528 10.4586872 13.1618229"></polygon>
                        <mask id="mask-2" fill="white">
                            <use xlink:href="#path-1"></use>
                        </mask>
                        <g id="Clip-5"></g>
                        <path d="M21.7626569,19.3046252 L12.8157975,24.5141776 L12.8157975,14.1957852 L21.748646,8.96275598 L21.7626569,19.3046252 Z M20.7523846,7.24329612 L11.8463395,12.4606061 L2.98219169,7.25044125 L11.845595,2.08961191 L20.7523846,7.24329612 Z M10.8565082,14.1838086 L10.8565082,24.4707624 L1.97510061,19.3316406 L1.96108973,8.95520255 L10.8565082,14.1838086 Z M23.7061755,7.61974269 C23.7053632,7.03948963 23.3941458,6.49911324 22.8938153,6.20956512 L12.6535556,0.284274322 C12.407993,0.142188198 12.1283846,0.0671302499 11.8450535,0.0671302499 C11.5601656,0.0671302499 11.2792035,0.143004785 11.0326933,0.286519936 L0.808542726,6.23977884 C0.309024467,6.53061988 -0.000771613572,7.07181287 -2.70741604e-05,7.65220202 L0.0160143659,19.5307517 C0.0168265907,20.1112089 0.32811175,20.6514492 0.828374549,20.9409293 L11.0686342,26.8662881 C11.3142646,27.0083743 11.5938053,27.0835003 11.8771364,27.0835003 C12.1620919,27.0835003 12.4429863,27.0075577 12.6894965,26.8640425 L22.9136471,20.9107836 C23.4131654,20.6199426 23.7230291,20.0788177 23.7222169,19.4984285 L23.7061755,7.61974269 Z" id="Fill-4" fill="#1F88DE" mask="url(#mask-2)"></path>
                    </g>
                </g>
            </g>
        </g>
    </g>
</svg>