<?xml version="1.0" encoding="UTF-8"?>
<svg width="40px" height="40px" viewBox="0 0 40 40" version="1.1" xmlns="http://www.w3.org/2000/svg" xmlns:xlink="http://www.w3.org/1999/xlink">
    <!-- Generator: Sketch 52.4 (67378) - http://www.bohemiancoding.com/sketch -->
    <title>Group</title>
    <desc>Created with Sketch.</desc>
    <g id="Page-1" stroke="none" stroke-width="1" fill="none" fill-rule="evenodd">
        <g id="Group">
            <circle id="Oval" fill="#E9F6FE" cx="20" cy="20" r="20"></circle>
            <path d="M29.0333132,13.01872 L22.0066194,20.0001676 L29.0333313,26.9811175 C30.6939756,25.0100687 31.5965418,22.5715961 31.5965418,19.9998481 C31.5965418,17.427929 30.6939691,14.9897692 29.0333131,13.0187202 Z M30.7131717,11.3496784 C31.6482455,12.4129332 32.3968469,13.5938032 32.9411765,14.8553609 C33.6358705,16.4652093 34,18.2055244 34,19.9998481 C34,23.2011625 32.8403119,26.231829 30.7131717,28.6500179 C30.4560095,28.9429986 30.184438,29.226544 29.899644,29.4998408 C29.7943719,29.6010257 29.6877437,29.7002585 29.5795898,29.7975392 C29.27208,30.0744149 28.790473,30.0661184 28.4922868,29.7799701 L20.1949768,21.7019501 L21.9930499,20.0001692 L20.2784576,18.3780518 L28.4917783,10.2202142 C28.7903034,9.93390329 29.2724191,9.9254441 29.5800983,10.2026452 C29.6880827,10.2997631 29.7945414,10.3988332 29.899644,10.4998555 C30.184438,10.7731523 30.4560095,11.0566977 30.7131717,11.3496784 Z" id="Combined-Shape" fill="#91D2FB"></path>
            <path d="M9.34961667,28.6502131 C7.1819026,26.2319811 6,23.2012604 6,19.9998888 C6,16.7985172 7.1819026,13.7677966 9.34961667,11.3495645 L11.0886945,12.9872599 C9.37898715,14.9638169 8.44949789,17.4142595 8.44949789,19.9998888 C8.44949789,22.5853555 9.37898715,25.0361235 11.0886945,27.0126804 L18.5363568,19.9998888 L9.34961667,11.3495645 C9.611705,11.0565786 9.88847857,10.773028 10.178728,10.4997263 C10.2860166,10.3987023 10.3946874,10.2996305 10.5049131,10.2023481 C10.8186589,9.9254674 11.309837,9.93392674 11.6139078,10.2204055 L22,19.9998888 L11.6133895,29.7798602 C11.3096642,30.0660136 10.8188317,30.0744729 10.5052586,29.7977549 C10.3950329,29.7004726 10.2861894,29.601238 10.178728,29.5000513 C9.88847857,29.2267496 9.611705,28.9431991 9.34961667,28.6502131 Z" id="Combined-Shape" fill="#1F88DE"></path>
        </g>
    </g>
</svg>