<?xml version="1.0" encoding="UTF-8"?>
<svg width="40px" height="40px" viewBox="0 0 40 40" version="1.1" xmlns="http://www.w3.org/2000/svg" xmlns:xlink="http://www.w3.org/1999/xlink">
    <!-- Generator: Sketch 51.3 (57544) - http://www.bohemiancoding.com/sketch -->
    <title>Artboard</title>
    <desc>Created with Sketch.</desc>
    <defs></defs>
    <g id="Artboard" stroke="none" stroke-width="1" fill="none" fill-rule="evenodd">
        <g id="iconBeam" transform="translate(5.000000, 6.000000)"></g>
        <circle id="Oval" fill="#E9F6FE" fill-rule="nonzero" cx="20" cy="20" r="20"></circle>
        <g id="Group-3" transform="translate(17.000000, 23.000000)" fill-rule="nonzero" stroke="#1F88DE" stroke-width="2">
            <path d="M0,0 L1.5,11" id="Path-2-Copy-4"></path>
            <path d="M6,0 L4.5,11" id="Path-2-Copy-3"></path>
        </g>
        <g id="Group" transform="translate(20.000000, 20.000000) rotate(120.000000) translate(-20.000000, -20.000000) translate(2.000000, 2.000000)" fill-rule="nonzero" stroke="#1F88DE">
            <g id="Group-2" transform="translate(11.311849, 13.847917) rotate(120.000000) translate(-11.311849, -13.847917) translate(7.311849, 7.847917)" stroke-width="2">
                <path d="M1.3857084,1.09595106 L2.42272949,11.5" id="Path-2"></path>
                <path d="M6.5,1.5 L5.58764648,11.5" id="Path-2"></path>
            </g>
            <path d="M15.5,21.5 L16.4227295,31.5" id="Path-2-Copy-2" stroke-width="2"></path>
            <path d="M20.5,21.5 L19.5876465,31.5" id="Path-2-Copy" stroke-width="2"></path>
            <circle id="Oval-2" stroke-width="2.5" transform="translate(18.000000, 18.000000) rotate(74.000000) translate(-18.000000, -18.000000) " cx="18" cy="18" r="14"></circle>
            <circle id="Oval-2" stroke-width="2" cx="18" cy="18" r="4.5"></circle>
            <circle id="Oval-2-Copy" stroke-width="2" fill="#E9F6FE" cx="18" cy="18" r="4.5"></circle>
        </g>
    </g>
</svg>