<?xml version="1.0" encoding="UTF-8"?>
<svg width="40px" height="40px" viewBox="0 0 40 40" version="1.1" xmlns="http://www.w3.org/2000/svg" xmlns:xlink="http://www.w3.org/1999/xlink">
    <!-- Generator: Sketch 52.3 (67297) - http://www.bohemiancoding.com/sketch -->
    <title>Icon 1</title>
    <desc>Created with Sketch.</desc>
    <defs>
        <polygon id="path-1" points="0 27.6992211 23.3673398 27.6992211 23.3673398 -0.000147368421 0 -0.000147368421"></polygon>
    </defs>
    <g id="Iteration-6" stroke="none" stroke-width="1" fill="none" fill-rule="evenodd">
        <g id="v6-/-Design-1" transform="translate(-435.000000, -406.000000)">
            <g id="Services" transform="translate(205.000000, 352.000000)">
                <g id="Icon-1" transform="translate(230.000000, 54.000000)">
                    <circle id="Oval" fill="#E9F6FE" fill-rule="nonzero" cx="20" cy="20" r="20"></circle>
                    <g id="Icon" transform="translate(8.000000, 6.000000)">
                        <path d="M20.820048,12.0621789 L20.7100441,12.2176526 C18.7432629,14.9837579 15.8868527,18.3128105 13.8012082,20.7443895 L12.816341,21.8946 L13.5044191,21.9741789 C13.8765129,22.0176526 14.1651809,22.3197579 14.1910207,22.6933368 L14.2537746,23.5908105 L15.4867043,22.1532316 C17.6299348,19.6560737 20.867298,15.8812316 22.8864973,12.9390211 C22.9625402,12.8277579 23.0304621,12.7113368 23.088048,12.5919684 L23.3464465,12.0621789 L20.820048,12.0621789 Z" id="Fill-1" fill="#91D2FB"></path>
                        <path d="M2.55430547,12.0621789 L0.0220007813,12.0621789 L0.281875781,12.5927053 C0.343153125,12.7172316 0.414028125,12.8380737 0.495239063,12.9530211 C2.48121562,15.8016526 5.53105547,19.3768105 7.75697344,21.9867053 L9.13386797,23.6048105 L9.19440703,22.6970211 C9.21877031,22.3227053 9.50817656,22.0191263 9.87953203,21.9741789 L10.5631805,21.8938632 L9.44394609,20.5800737 C7.39816875,18.1816526 4.59639141,14.8968105 2.66504766,12.2154421 L2.55430547,12.0621789 Z" id="Fill-3" fill="#91D2FB"></path>
                        <mask id="mask-2" fill="white">
                            <use xlink:href="#path-1"></use>
                        </mask>
                        <g id="Clip-6"></g>
                        <path d="M10.6511836,25.5049053 L12.7346133,25.5049053 L12.7346133,23.4255368 L10.6511836,23.4255368 L10.6511836,25.5049053 Z M13.4130937,21.2319579 L9.97270312,21.2319579 C9.13549219,21.2319579 8.45332031,21.9120632 8.45332031,22.7483789 L8.45332031,26.1813263 C8.45332031,27.0183789 9.13549219,27.6992211 9.97270312,27.6992211 L13.4130937,27.6992211 C14.251043,27.6992211 14.9332148,27.0183789 14.9332148,26.1813263 L14.9332148,22.7483789 C14.9332148,21.9120632 14.251043,21.2319579 13.4130937,21.2319579 Z" id="Fill-5" fill="#1F88DE" mask="url(#mask-2)"></path>
                        <path d="M15.595084,3.0366 C18.5991504,4.40196842 20.7335215,7.29628421 21.1107832,10.5929158 L17.4577676,10.5929158 C17.3448105,8.04417895 16.823584,5.64502105 15.9812051,3.80365263 C15.8586504,3.53544211 15.7301895,3.27975789 15.595084,3.0366 Z M2.25729492,10.5929158 C2.62200586,7.35375789 4.62496289,4.55523158 7.5345293,3.14565263 C7.42157227,3.35638947 7.31230664,3.57523158 7.20820898,3.80291579 C6.36583008,5.64502105 5.84460352,8.04417895 5.73164648,10.5929158 L2.25729492,10.5929158 Z M9.20895117,4.71438947 C9.90367383,3.19502105 10.7955176,2.28796842 11.5943379,2.28796842 C12.3938965,2.28796842 13.2857402,3.19502105 13.9804629,4.71438947 C14.6995488,6.28533684 15.1491621,8.36102105 15.2569512,10.5929158 L7.93246289,10.5929158 C8.04099023,8.36102105 8.48986523,6.28533684 9.20895117,4.71438947 Z M19.8335566,3.30333684 C17.640123,1.17312632 14.7453223,7.36842105e-05 11.6836699,7.36842105e-05 C8.62349414,7.36842105e-05 5.72943164,1.17312632 3.53525977,3.30186316 C1.34625586,5.42691579 0.0911777344,8.27333684 0.00110742188,11.3172316 C-0.0114433594,11.7644947 0.0830566406,12.1940737 0.281654297,12.5934421 L0.383537109,12.7982842 L22.9874941,12.7982842 L23.0886387,12.5919684 C23.2857598,12.1918632 23.3787832,11.7644947 23.3662324,11.3201789 C23.2776387,8.27702105 22.0232988,5.42986316 19.8335566,3.30333684 Z" id="Fill-7" fill="#1F88DE" mask="url(#mask-2)"></path>
                    </g>
                </g>
            </g>
        </g>
    </g>
</svg>