<?xml version="1.0" encoding="UTF-8"?>
<svg width="40px" height="40px" viewBox="0 0 40 40" version="1.1" xmlns="http://www.w3.org/2000/svg" xmlns:xlink="http://www.w3.org/1999/xlink">
    <!-- Generator: Sketch 52.3 (67297) - http://www.bohemiancoding.com/sketch -->
    <title>Icon 2</title>
    <desc>Created with Sketch.</desc>
    <defs>
        <polygon id="path-1" points="0.00955471698 16.9939019 23.9690588 16.9939019 23.9690588 23.9572399 0.00955471698 23.9572399"></polygon>
    </defs>
    <g id="Iteration-6" stroke="none" stroke-width="1" fill="none" fill-rule="evenodd">
        <g id="v6-/-Design-1" transform="translate(-755.000000, -406.000000)">
            <g id="Services" transform="translate(205.000000, 352.000000)">
                <g id="Icon-2" transform="translate(550.000000, 54.000000)">
                    <circle id="Oval" fill="#E9F6FE" fill-rule="nonzero" cx="20" cy="20" r="20"></circle>
                    <g id="Icon" transform="translate(8.000000, 8.000000)">
                        <path d="M5.08653801,18.2256647 L5.08653801,22.7139881 L6.73231698,22.7086836 L6.81777251,22.6450933 C6.95886146,22.540166 6.96125499,22.4048992 6.96513639,22.1807482 L6.96520108,22.1774491 L6.95284528,18.2256647 L5.08653801,18.2256647 Z" id="Fill-1" fill="#1F88DE"></path>
                        <polygon id="Fill-3" fill="#1F88DE" points="6.94198383 1.22735094 5.12936927 1.22877412 5.12199461 5.73158814 6.95608625 5.73158814"></polygon>
                        <polygon id="Fill-5" fill="#1F88DE" points="5.12109542 6.3164442 5.10362911 16.9937919 5.08946199 16.9939213 5.08946199 17.6408216 6.99335418 17.6408216 6.95796873 6.3164442"></polygon>
                        <path d="M17.0842027,1.22741563 L17.0401488,1.49937251 C17.0237175,1.60100054 17.0157606,1.69350728 17.0157606,1.78213261 L17.0140787,5.73158814 L18.8673186,5.73158814 L18.8673186,1.22877412 L17.0842027,1.22741563 Z" id="Fill-7" fill="#1F88DE"></path>
                        <polygon id="Fill-9" fill="#1F88DE" points="17.0140464 6.97124313 17.0433509 6.97124313 17.0199978 17.640828 18.8673509 17.640828 18.8673509 6.31645067 17.0140464 6.31645067"></polygon>
                        <path d="M17.0147385,20.0427364 L17.0157736,22.2255073 C17.0157736,22.2893563 17.0164852,22.3448604 17.0177143,22.3935073 L17.0256712,22.7088065 L18.8673315,22.713917 L18.8673315,18.2256582 L17.0187493,18.2256582 L17.0147385,20.0427364 Z" id="Fill-11" fill="#1F88DE"></path>
                        <path d="M22.1969854,6.46900269e-06 L18.7979127,6.46900269e-06 C17.9179342,6.46900269e-06 17.1785272,0.630863612 17.0398318,1.50003881 L16.9801229,1.87420593 L22.1004032,1.87841078 L22.1004032,5.08470728 L1.87868895,5.08470728 L1.87868895,1.87841078 L6.99890458,1.87420593 L6.93926038,1.50003881 C6.80056496,0.630863612 6.06115795,6.46900269e-06 5.18117951,6.46900269e-06 L1.78210674,6.46900269e-06 C0.799465229,6.46900269e-06 2.58760108e-05,0.799445822 2.58760108e-05,1.78215202 L2.58760108e-05,5.1812248 C2.58760108e-05,6.16386631 0.799465229,6.96337035 1.78210674,6.96337035 L22.1969854,6.96337035 C23.179627,6.96337035 23.9790663,6.16386631 23.9790663,5.1812248 L23.9790663,1.78215202 C23.9790663,0.799445822 23.179627,6.46900269e-06 22.1969854,6.46900269e-06" id="Fill-13" fill="#1F88DE"></path>
                        <mask id="mask-2" fill="white">
                            <use xlink:href="#path-1"></use>
                        </mask>
                        <g id="Clip-16"></g>
                        <path d="M22.1869132,16.9939019 L1.79163558,16.9939019 C0.80899407,16.9939019 0.00955471698,17.7933412 0.00955471698,18.7760474 L0.00955471698,22.1751202 C0.00955471698,23.1577617 0.80899407,23.9572658 1.79163558,23.9572658 L5.19070836,23.9572658 C6.0686814,23.9572658 6.82607224,23.3015677 6.95247655,22.432069 L7.00649272,22.0608776 L1.88821779,22.077503 L1.88821779,18.872565 L22.0903957,18.872565 L22.0903957,22.077503 L16.9721854,22.0608776 L17.0259429,22.4319396 C17.151959,23.301503 17.9093499,23.9572658 18.7878404,23.9572658 L22.1869132,23.9572658 C23.1696194,23.9572658 23.9690588,23.1577617 23.9690588,22.1751202 L23.9690588,18.7760474 C23.9690588,17.7933412 23.1696194,16.9939019 22.1869132,16.9939019" id="Fill-15" fill="#1F88DE" mask="url(#mask-2)"></path>
                    </g>
                </g>
            </g>
        </g>
    </g>
</svg>