<?xml version="1.0" encoding="UTF-8"?>
<svg width="40px" height="40px" viewBox="0 0 40 40" version="1.1" xmlns="http://www.w3.org/2000/svg" xmlns:xlink="http://www.w3.org/1999/xlink">
    <!-- Generator: Sketch 52.3 (67297) - http://www.bohemiancoding.com/sketch -->
    <title>Icon 4</title>
    <desc>Created with Sketch.</desc>
    <g id="Iteration-6" stroke="none" stroke-width="1" fill="none" fill-rule="evenodd">
        <g id="v6-/-Design-1" transform="translate(-435.000000, -550.000000)">
            <g id="Services" transform="translate(205.000000, 263.000000)">
                <g id="Icon-4" transform="translate(230.000000, 287.000000)">
                    <circle id="Oval" fill="#E9F6FE" fill-rule="nonzero" cx="20" cy="20" r="20"></circle>
                    <g id="Icon" transform="translate(8.000000, 6.000000)" fill="#1F88DE">
                        <path d="M21.9511193,15.5665014 C21.590665,10.5742986 17.3271846,6.66368451 12.2449559,6.66368451 C7.16272712,6.66368451 2.8993268,10.5742986 2.53895261,15.5665803 L2.53110621,15.6742423 L2.58018627,15.770862 C3.18379902,16.9605859 4.05218791,18.2716169 5.16133333,19.6677521 L5.82531536,19.2309521 C5.16693791,18.0809803 4.83314542,17.0788958 4.83314542,16.252462 C4.83314542,12.2264563 8.15809967,8.95100845 12.2449559,8.95100845 C16.3318922,8.95100845 19.6569265,12.2264563 19.6569265,16.252462 C19.6569265,17.0788169 19.3232141,18.0808225 18.6649167,19.2307155 L19.3288987,19.6675155 C20.437884,18.2716958 21.3061928,16.9606648 21.9098856,15.7707831 L21.9589657,15.6741634 L21.9511193,15.5665014 Z" id="Fill-1"></path>
                        <path d="M12.2449959,25.6590423 C12.1092851,25.6590423 11.9785384,25.6091944 11.8768554,25.5188056 C10.666027,24.4411606 8.32251389,22.2555831 6.23216748,19.7254085 C3.67399918,16.6290028 2.32185539,13.9792563 2.32185539,12.0626366 C2.32185539,6.67251831 6.77332925,2.28732394 12.2449959,2.28732394 C17.7166626,2.28732394 22.1681364,6.67251831 22.1681364,12.0626366 C22.1681364,13.9792563 20.8159926,16.6290028 18.2578243,19.7254085 C16.1674779,22.2555831 13.8239649,24.4411606 12.6130564,25.5188845 C12.5114534,25.6091944 12.3807067,25.6590423 12.2449959,25.6590423 M12.2449959,0 C5.49308415,0 4.00326797e-05,5.41125634 4.00326797e-05,12.0626366 C4.00326797e-05,14.5461183 1.49093709,17.6100282 4.43133742,21.1691831 C6.61936356,23.8175887 9.06023611,26.0945014 10.3203848,27.2161577 C10.8496168,27.687031 11.5331348,27.9463662 12.2449959,27.9463662 C12.9570172,27.9463662 13.6405351,27.6869521 14.1696871,27.2159211 C15.4296757,26.0946592 17.8702279,23.818062 20.0586544,21.1691831 C22.9990547,17.6100282 24.4899518,14.5461183 24.4899518,12.0626366 C24.4899518,5.41125634 18.9969077,0 12.2449959,0" id="Fill-3"></path>
                    </g>
                </g>
            </g>
        </g>
    </g>
</svg>