<?xml version="1.0" encoding="UTF-8"?>
<svg width="40px" height="40px" viewBox="0 0 40 40" version="1.1" xmlns="http://www.w3.org/2000/svg" xmlns:xlink="http://www.w3.org/1999/xlink">
    <!-- Generator: Sketch 52.3 (67297) - http://www.bohemiancoding.com/sketch -->
    <title>Icon 5</title>
    <desc>Created with Sketch.</desc>
    <defs>
        <polygon id="path-1" points="0.0481270468 0.0711073446 17.5561249 0.0711073446 17.5561249 27.920896 0.0481270468 27.920896"></polygon>
    </defs>
    <g id="Iteration-6" stroke="none" stroke-width="1" fill="none" fill-rule="evenodd">
        <g id="v6-/-Design-1" transform="translate(-755.000000, -550.000000)">
            <g id="Services" transform="translate(205.000000, 263.000000)">
                <g id="Icon-5" transform="translate(550.000000, 287.000000)">
                    <circle id="Oval" fill="#E9F6FE" fill-rule="nonzero" cx="20" cy="20" r="20"></circle>
                    <g id="Icon" transform="translate(5.000000, 6.000000)">
                        <g id="Group-3" transform="translate(9.517544, 0.007989)">
                            <mask id="mask-2" fill="white">
                                <use xlink:href="#path-1"></use>
                            </mask>
                            <g id="Clip-2"></g>
                            <path d="M16.5722488,7.37751751 C15.9405218,5.27933672 15.0068507,3.25099774 13.7971709,1.34905424 C13.2882996,0.548839548 12.4176029,0.071099435 11.46799,0.071099435 C10.9582462,0.071099435 10.4591303,0.212444068 10.0245751,0.479709605 L0.0656551901,6.60656836 L0.35435402,6.95656836 C0.616324415,7.27405989 1.03073414,7.88317853 1.16691433,8.08329153 C1.22830249,8.17346102 1.2332992,8.18089605 1.26121732,8.20865876 L1.4829761,8.4298113 L11.2320342,2.43195819 C11.3034158,2.38805989 11.3850287,2.36488475 11.46799,2.36488475 C11.6255053,2.36488475 11.7700927,2.44437627 11.8547988,2.57757401 C14.0799213,6.07615028 15.2560518,10.0437661 15.2560518,14.0516418 C15.2560518,17.9897548 14.1184673,21.8962294 11.9663127,25.3486927 C11.8576541,25.5230203 11.6688895,25.6271107 11.4614863,25.6271107 C11.3519553,25.6271107 11.2444863,25.5967379 11.1506592,25.539235 L2.07663289,19.9797322 L2.07885365,19.9761729 L1.73217712,19.768704 L1.52636023,20.1067605 L1.19229444,19.8979469 C0.933020687,20.310591 0.645828801,20.7076531 0.338729386,21.0782972 L0.0481270468,21.429009 L9.9466106,27.4936983 C10.4028182,27.7731446 10.9266004,27.920896 11.4614863,27.920896 C12.4694735,27.920896 13.3883924,27.4119921 13.9197886,26.5596531 C15.0907637,24.681122 15.9942959,22.6812576 16.6052429,20.6155062 C17.2361768,18.4819695 17.5561249,16.2736079 17.5561249,14.0516418 C17.5561249,11.7909186 17.225073,9.54538192 16.5722488,7.37751751" id="Fill-1" fill="#1F88DE" mask="url(#mask-2)"></path>
                        </g>
                        <path d="M2.51520132,14.4251729 C2.37862456,14.3414893 2.30026345,14.2018847 2.30010482,14.0421107 C2.2999462,13.8822576 2.37806937,13.7424158 2.5144875,13.6584949 L9.64185885,9.27364746 C10.480751,10.7458621 10.9223651,12.3768226 10.9223651,14.0146644 C10.9223651,15.6636588 10.4757543,17.3039525 9.62726528,18.7826531 L2.51520132,14.4251729 Z M12.1172134,9.06530847 L12.1065855,9.04237062 C12.0855675,8.99704859 12.0644703,8.95172655 12.0434524,8.90806554 C12.0186275,8.85609944 11.9930094,8.80468701 11.9672327,8.75335367 L11.948277,8.71546667 C11.7848925,8.39046102 11.6075489,8.07257401 11.4207671,7.76963616 C11.1352408,7.30898079 10.8202101,6.86904859 10.4843994,6.46202034 L10.2645442,6.19546667 L1.30686981,11.7063254 C0.487726535,12.2103254 -0.000840716374,13.0842576 3.17251462e-05,14.0441672 C0.000824853801,15.0040768 0.491057675,15.877139 1.3111527,16.3795571 L10.2481264,21.855139 L10.4676644,21.5900881 C10.7967335,21.193026 11.1043088,20.7677266 11.3819038,20.3259751 L11.590576,19.9929017 L11.5844689,19.9889469 C11.7209663,19.7539525 11.8511187,19.5123141 11.9732605,19.2668 L11.9869817,19.2394328 C11.9953888,19.2226644 12.0038753,19.2058169 12.0114893,19.1900768 C12.0482112,19.1149356 12.0832675,19.0391616 12.1182444,18.9634667 L12.1243515,18.9503367 C12.1684495,18.8539186 12.2123095,18.7572633 12.2549005,18.6570486 L12.285436,18.5860203 C12.8907518,17.1359525 13.1976925,15.5984836 13.1976925,14.0164045 C13.1976925,12.2918734 12.8344396,10.6265853 12.1172134,9.06530847 Z" id="Fill-4" fill="#1F88DE"></path>
                    </g>
                </g>
            </g>
        </g>
    </g>
</svg>